<?xml version="1.0" encoding="UTF-8"?><svg id="a" xmlns="http://www.w3.org/2000/svg" viewBox="0 0 2275 1063.2"><defs><style>.b{fill:#989898;}.c{fill:none;stroke:#5fddbf;stroke-miterlimit:10;stroke-width:20px;}</style></defs><path class="c" d="M57.3,10H2217.7c26.1,0,47.3,22.6,47.3,50.4V1002.8c0,27.8-21.2,50.4-47.3,50.4H57.3c-26.1,0-47.3-22.6-47.3-50.4V60.4c0-27.8,21.2-50.4,47.3-50.4Z"/><path class="b" d="M1839.73,151.56c36.23,0,71.76,4.46,106.6,13.38,34.84,8.92,68.14,21.46,99.91,37.62,2.79,1.11,4.32,2.79,4.6,5.02,.28,2.23-.14,4.18-1.25,5.85-1.11,1.67-2.65,3.07-4.6,4.18-1.95,1.11-4.32,1.11-7.11,0-30.1-15.61-62.01-27.59-95.73-35.95-33.72-8.36-67.86-12.54-102.42-12.54s-68.28,4.04-101.17,12.12c-32.89,8.08-64.38,20.21-94.48,36.37-2.79,1.11-4.88,1.25-6.27,.42-1.39-.84-2.65-2.09-3.76-3.76-1.11-1.11-1.67-2.79-1.67-5.02,0-2.23,.84-3.9,2.51-5.02,31.77-16.72,65.08-29.68,99.91-38.88,34.84-9.2,69.81-13.8,104.93-13.8Zm0,84.44c60.2,0,116.91,12.82,170.14,38.46,53.23,25.64,97.4,62.43,132.52,110.36,1.67,2.79,2.37,5.02,2.09,6.69-.28,1.67-1.25,3.34-2.93,5.02-1.67,1.67-3.76,2.51-6.27,2.51s-4.88-1.39-7.11-4.18c-32.89-45.71-74.83-80.82-125.83-105.35-51-24.53-105.21-36.79-162.62-36.79s-111.2,12.4-161.36,37.21c-50.17,24.8-91.97,59.78-125.41,104.93-2.23,2.79-4.32,4.46-6.27,5.02-1.95,.56-4.04,.28-6.27-.84-2.23-1.11-3.34-2.93-3.34-5.43,0-2.51,.56-4.88,1.67-7.11,34.56-47.94,78.31-85,131.27-111.2,52.95-26.2,109.53-39.3,169.72-39.3Zm0,164.71c51.28,0,95.45,17,132.52,51,37.07,34,55.6,75.8,55.6,125.41,0,2.79-.7,4.88-2.09,6.27-1.39,1.39-3.48,2.09-6.27,2.09-2.79,0-5.02-.7-6.69-2.09-1.67-1.39-2.51-3.48-2.51-6.27,0-45.15-16.86-83.05-50.58-113.71-33.72-30.66-73.71-45.98-119.98-45.98s-85.98,15.33-119.14,45.98c-33.16,30.66-49.75,68.56-49.75,113.71,0,47.38,8.22,87.79,24.66,121.23,16.44,33.44,40.83,66.89,73.16,100.33,2.23,2.23,3.21,4.32,2.93,6.27-.28,1.95-1.25,3.76-2.93,5.43-1.11,1.11-2.79,1.95-5.02,2.51-2.23,.56-4.74-.28-7.52-2.51-31.77-34-56.85-69.26-75.25-105.76-18.39-36.51-27.59-79.01-27.59-127.5,0-49.61,18.25-91.41,54.76-125.41,36.51-34,80.4-51,131.68-51Zm-.84,167.22c2.79,0,4.88,.84,6.27,2.51s2.09,3.9,2.09,6.69c0,45.15,16.58,82.35,49.75,111.62,33.16,29.26,71.49,43.89,114.96,43.89,4.46,0,9.75-.28,15.89-.84,6.13-.56,12.82-1.39,20.07-2.51,2.79-.56,5.02-.14,6.69,1.25,1.67,1.39,2.79,2.93,3.34,4.6,.56,2.23,.42,4.18-.42,5.85-.84,1.67-2.65,2.79-5.43,3.34-10.03,2.79-18.81,4.32-26.34,4.6-7.52,.28-12.12,.42-13.8,.42-49.05,0-91.55-16.3-127.5-48.91-35.95-32.61-53.93-73.71-53.93-123.32,0-2.79,.7-5.02,2.09-6.69s3.48-2.51,6.27-2.51Zm.84-83.61c26.75,0,49.75,8.92,68.98,26.75,19.23,17.84,28.84,39.85,28.84,66.05,0,21.18,8.22,39.02,24.66,53.51,16.44,14.49,35.53,21.74,57.27,21.74s39.71-7.25,55.6-21.74c15.89-14.49,23.83-32.33,23.83-53.51,0-68.56-25.5-125.97-76.5-172.23-51-46.26-111.9-69.39-182.68-69.39s-131.68,23.13-182.68,69.39c-51,46.26-76.5,103.67-76.5,172.23,0,13.38,1.53,30.8,4.6,52.26,3.07,21.46,9.61,45.85,19.65,73.16,1.11,2.79,1.11,4.88,0,6.27-1.11,1.39-2.51,2.65-4.18,3.76-2.23,1.11-4.6,1.39-7.11,.84-2.51-.56-4.32-2.23-5.43-5.02-7.25-21.18-12.96-42.78-17.14-64.8-4.18-22.02-6.27-44.17-6.27-66.47,0-71.9,27.31-133.36,81.94-184.36,54.62-51,119-76.5,193.14-76.5,75.8,0,140.88,25.08,195.23,75.25,54.35,50.16,81.52,112.04,81.52,185.61,0,25.64-9.48,47.38-28.43,65.21-18.95,17.84-41.8,26.75-68.56,26.75s-50.72-8.92-70.23-26.75c-19.51-17.84-29.26-39.57-29.26-65.21,0-21.74-7.94-39.85-23.83-54.35-15.89-14.49-34.7-21.74-56.44-21.74s-40.69,7.25-56.85,21.74c-16.16,14.49-24.25,32.61-24.25,54.35,0,57.97,17.56,106.32,52.67,145.06,35.12,38.74,78.87,65.91,131.27,81.52,3.34,1.11,5.43,2.51,6.27,4.18,.84,1.67,.98,3.62,.42,5.85-.56,2.79-1.67,4.6-3.34,5.43-1.67,.84-3.9,.98-6.69,.42-57.41-15.05-104.65-43.89-141.72-86.53-37.07-42.64-55.6-94.62-55.6-155.93,0-26.2,9.61-48.21,28.84-66.05,19.23-17.84,42.22-26.75,68.98-26.75Z"/></svg>