<?xml version="1.0" encoding="utf-8"?>
<!-- Generator: Adobe Illustrator 26.1.0, SVG Export Plug-In . SVG Version: 6.00 Build 0)  -->
<svg version="1.1" id="a" xmlns="http://www.w3.org/2000/svg" xmlns:xlink="http://www.w3.org/1999/xlink" x="0px" y="0px"
	 viewBox="0 0 2275 1064.1" style="enable-background:new 0 0 2275 1064.1;" xml:space="preserve">
<style type="text/css">
	.st0{fill:none;stroke:#5FDDBF;stroke-width:20;stroke-miterlimit:10;}
	.st1{fill:#989898;}
</style>
<path class="st0" d="M57.3,10h2160.4c26.1,0,47.3,22.6,47.3,50.4v942.4c0,27.8-21.2,50.4-47.3,50.4H57.3
	c-26.1,0-47.3-22.6-47.3-50.4V60.4C10,32.6,31.2,10,57.3,10z"/>
<path class="st1" d="M1851.5,235.2c-82,0-148.4,66.4-148.4,148.4S1769.5,532,1851.5,532s148.4-66.4,148.4-148.4
	S1933.5,235.2,1851.5,235.2z M1851.5,606.2c-99.1,0-296.8,49.7-296.8,148.4v74.2h593.6v-74.2C2148.3,656,1950.5,606.2,1851.5,606.2
	L1851.5,606.2z"/>
</svg>
