<?xml version="1.0" encoding="UTF-8"?><svg id="a" xmlns="http://www.w3.org/2000/svg" viewBox="0 0 2275.04 849.44"><defs><style>.b{fill:#989898;}.c{fill:none;stroke:#5fddbf;stroke-miterlimit:10;stroke-width:20px;}</style></defs><path class="c" d="M57.3,10H2217.74c26.12,0,47.3,17.95,47.3,40.09V799.35c0,22.14-21.18,40.09-47.3,40.09H57.3c-26.12,0-47.3-17.95-47.3-40.09V50.09C10,27.95,31.18,10,57.3,10Z"/><path class="b" d="M1851.48,127.9c-82,0-148.4,66.42-148.4,148.41s66.42,148.41,148.4,148.41,148.41-66.42,148.41-148.41-66.42-148.41-148.41-148.41Zm0,371.02c-99.06,0-296.82,49.72-296.82,148.41v74.21h593.63v-74.21c0-98.69-197.75-148.41-296.82-148.41Z"/></svg>