<?xml version="1.0" encoding="utf-8"?>
<!-- Generator: Adobe Illustrator 26.1.0, SVG Export Plug-In . SVG Version: 6.00 Build 0)  -->
<svg version="1.1" id="a" xmlns="http://www.w3.org/2000/svg" xmlns:xlink="http://www.w3.org/1999/xlink" x="0px" y="0px"
	 viewBox="0 0 2275 1064.1" style="enable-background:new 0 0 2275 1064.1;" xml:space="preserve">
<style type="text/css">
	.st0{fill:none;stroke:#FCFCFC;stroke-width:3;stroke-miterlimit:10;}
	.st1{fill:#FFFFFF;}
	.st2{fill:#FCFCFC;}
</style>
<path class="st0" d="M57.3,10h2160.4c26.1,0,47.3,22.6,47.3,50.4v942.4c0,27.8-21.2,50.4-47.3,50.4H57.3
	c-26.1,0-47.3-22.6-47.3-50.4V60.4C10,32.6,31.2,10,57.3,10z"/>
<path class="st1" d="M1851.5,235.2c-82,0-148.4,66.4-148.4,148.4S1769.5,532,1851.5,532s148.4-66.4,148.4-148.4
	S1933.5,235.2,1851.5,235.2z M1851.5,606.2c-99.1,0-296.8,49.7-296.8,148.4v74.2h593.6v-74.2C2148.3,656,1950.5,606.2,1851.5,606.2
	L1851.5,606.2z"/>
<g>
	<path class="st2" d="M1077.3,437.2H101c-10.1,0-18.4-8.2-18.4-18.4v0c0-10.1,8.2-18.4,18.4-18.4h976.3c10.1,0,18.4,8.2,18.4,18.4v0
		C1095.7,429,1087.5,437.2,1077.3,437.2z"/>
	<path class="st2" d="M1077.3,512.7H101c-10.1,0-18.4-8.2-18.4-18.4v0c0-10.1,8.2-18.4,18.4-18.4h976.3c10.1,0,18.4,8.2,18.4,18.4v0
		C1095.7,504.5,1087.5,512.7,1077.3,512.7z"/>
	<path class="st2" d="M1077.3,588.1H101c-10.1,0-18.4-8.2-18.4-18.4v0c0-10.1,8.2-18.4,18.4-18.4h976.3c10.1,0,18.4,8.2,18.4,18.4v0
		C1095.7,579.9,1087.5,588.1,1077.3,588.1z"/>
	<path class="st2" d="M1077.3,663.6H101c-10.1,0-18.4-8.2-18.4-18.4v0c0-10.1,8.2-18.4,18.4-18.4h976.3c10.1,0,18.4,8.2,18.4,18.4v0
		C1095.7,655.3,1087.5,663.6,1077.3,663.6z"/>
</g>
</svg>
