<?xml version="1.0" encoding="utf-8"?>
<!-- Generator: Adobe Illustrator 26.1.0, SVG Export Plug-In . SVG Version: 6.00 Build 0)  -->
<svg version="1.1" id="a" xmlns="http://www.w3.org/2000/svg" xmlns:xlink="http://www.w3.org/1999/xlink" x="0px" y="0px"
	 viewBox="0 0 2275 1063.2" style="enable-background:new 0 0 2275 1063.2;" xml:space="preserve">
<style type="text/css">
	.st0{fill:none;stroke:#FFFFFF;stroke-width:20;stroke-miterlimit:10;}
	.st1{fill:#FFFFFF;}
	.st2{fill:#FCFCFC;}
</style>
<path class="st0" d="M57.3,10h2160.4c26.1,0,47.3,22.6,47.3,50.4v942.4c0,27.8-21.2,50.4-47.3,50.4H57.3
	c-26.1,0-47.3-22.6-47.3-50.4V60.4C10,32.6,31.2,10,57.3,10z"/>
<path class="st1" d="M1839.7,151.6c36.2,0,71.8,4.5,106.6,13.4s68.1,21.5,99.9,37.6c2.8,1.1,4.3,2.8,4.6,5c0.3,2.2-0.1,4.2-1.2,5.9
	c-1.1,1.7-2.7,3.1-4.6,4.2c-1.9,1.1-4.3,1.1-7.1,0c-30.1-15.6-62-27.6-95.7-35.9s-67.9-12.5-102.4-12.5s-68.3,4-101.2,12.1
	s-64.4,20.2-94.5,36.4c-2.8,1.1-4.9,1.2-6.3,0.4c-1.4-0.8-2.7-2.1-3.8-3.8c-1.1-1.1-1.7-2.8-1.7-5c0-2.2,0.8-3.9,2.5-5
	c31.8-16.7,65.1-29.7,99.9-38.9C1769.6,156.1,1804.6,151.5,1839.7,151.6L1839.7,151.6z M1839.7,236c60.2,0,116.9,12.8,170.1,38.5
	c53.2,25.6,97.4,62.4,132.5,110.4c1.7,2.8,2.4,5,2.1,6.7s-1.2,3.3-2.9,5c-1.7,1.7-3.8,2.5-6.3,2.5s-4.9-1.4-7.1-4.2
	c-32.9-45.7-74.8-80.8-125.8-105.4c-51-24.5-105.2-36.8-162.6-36.8s-111.2,12.4-161.4,37.2c-50.2,24.8-92,59.8-125.4,104.9
	c-2.2,2.8-4.3,4.5-6.3,5c-1.9,0.6-4,0.3-6.3-0.8c-2.2-1.1-3.3-2.9-3.3-5.4c0-2.5,0.6-4.9,1.7-7.1c34.6-47.9,78.3-85,131.3-111.2
	C1723,249.1,1779.5,236,1839.7,236L1839.7,236z M1839.7,400.7c51.3,0,95.4,17,132.5,51c37.1,34,55.6,75.8,55.6,125.4
	c0,2.8-0.7,4.9-2.1,6.3s-3.5,2.1-6.3,2.1s-5-0.7-6.7-2.1c-1.7-1.4-2.5-3.5-2.5-6.3c0-45.2-16.9-83-50.6-113.7s-73.7-46-120-46
	s-86,15.3-119.1,46c-33.2,30.7-49.8,68.6-49.8,113.7c0,47.4,8.2,87.8,24.7,121.2c16.4,33.4,40.8,66.9,73.2,100.3
	c2.2,2.2,3.2,4.3,2.9,6.3c-0.3,2-1.2,3.8-2.9,5.4c-1.1,1.1-2.8,2-5,2.5s-4.7-0.3-7.5-2.5c-31.8-34-56.8-69.3-75.2-105.8
	c-18.4-36.5-27.6-79-27.6-127.5c0-49.6,18.2-91.4,54.8-125.4S1788.4,400.7,1839.7,400.7L1839.7,400.7z M1838.9,567.9
	c2.8,0,4.9,0.8,6.3,2.5s2.1,3.9,2.1,6.7c0,45.2,16.6,82.3,49.8,111.6c33.2,29.3,71.5,43.9,115,43.9c4.5,0,9.8-0.3,15.9-0.8
	c6.1-0.6,12.8-1.4,20.1-2.5c2.8-0.6,5-0.1,6.7,1.2s2.8,2.9,3.3,4.6c0.6,2.2,0.4,4.2-0.4,5.8c-0.8,1.7-2.6,2.8-5.4,3.3
	c-10,2.8-18.8,4.3-26.3,4.6c-7.5,0.3-12.1,0.4-13.8,0.4c-49.1,0-91.6-16.3-127.5-48.9s-53.9-73.7-53.9-123.3c0-2.8,0.7-5,2.1-6.7
	S1836.1,567.9,1838.9,567.9L1838.9,567.9z M1839.7,484.3c26.8,0,49.8,8.9,69,26.8c19.2,17.8,28.8,39.8,28.8,66
	c0,21.2,8.2,39,24.7,53.5c16.4,14.5,35.5,21.7,57.3,21.7s39.7-7.2,55.6-21.7c15.9-14.5,23.8-32.3,23.8-53.5
	c0-68.6-25.5-126-76.5-172.2s-111.9-69.4-182.7-69.4s-131.7,23.1-182.7,69.4s-76.5,103.7-76.5,172.2c0,13.4,1.5,30.8,4.6,52.3
	s9.6,45.8,19.7,73.2c1.1,2.8,1.1,4.9,0,6.3s-2.5,2.7-4.2,3.8c-2.2,1.1-4.6,1.4-7.1,0.8c-2.5-0.6-4.3-2.2-5.4-5
	c-7.2-21.2-13-42.8-17.1-64.8s-6.3-44.2-6.3-66.5c0-71.9,27.3-133.4,81.9-184.4c54.6-51,119-76.5,193.1-76.5
	c75.8,0,140.9,25.1,195.2,75.2c54.3,50.2,81.5,112,81.5,185.6c0,25.6-9.5,47.4-28.4,65.2c-18.9,17.8-41.8,26.8-68.6,26.8
	s-50.7-8.9-70.2-26.8c-19.5-17.8-29.3-39.6-29.3-65.2c0-21.7-7.9-39.8-23.8-54.3c-15.9-14.5-34.7-21.7-56.4-21.7
	s-40.7,7.2-56.8,21.7s-24.2,32.6-24.2,54.3c0,58,17.6,106.3,52.7,145.1c35.1,38.7,78.9,65.9,131.3,81.5c3.3,1.1,5.4,2.5,6.3,4.2
	s1,3.6,0.4,5.8c-0.6,2.8-1.7,4.6-3.3,5.4c-1.7,0.8-3.9,1-6.7,0.4c-57.4-15-104.7-43.9-141.7-86.5s-55.6-94.6-55.6-155.9
	c0-26.2,9.6-48.2,28.8-66C1790,493.2,1813,484.3,1839.7,484.3L1839.7,484.3z"/>
<g>
	<path class="st2" d="M159.3,400.1h976.3c10.1,0,18.4,8.2,18.4,18.4l0,0c0,10.1-8.2,18.4-18.4,18.4H159.3
		c-10.1,0-18.4-8.2-18.4-18.4l0,0C141,408.3,149.2,400.1,159.3,400.1z"/>
	<path class="st2" d="M159.3,475.5h976.3c10.1,0,18.4,8.2,18.4,18.4l0,0c0,10.1-8.2,18.4-18.4,18.4H159.3
		c-10.1,0-18.4-8.2-18.4-18.4l0,0C141,483.7,149.2,475.5,159.3,475.5z"/>
	<path class="st2" d="M159.3,551h976.3c10.1,0,18.4,8.2,18.4,18.4l0,0c0,10.1-8.2,18.4-18.4,18.4H159.3c-10.1,0-18.4-8.2-18.4-18.4
		l0,0C141,559.2,149.2,551,159.3,551z"/>
	<path class="st2" d="M159.3,626.4h976.3c10.1,0,18.4,8.2,18.4,18.4l0,0c0,10.1-8.2,18.4-18.4,18.4H159.3
		c-10.1,0-18.4-8.2-18.4-18.4l0,0C141,634.6,149.2,626.4,159.3,626.4z"/>
</g>
</svg>
